<svg xmlns="http://www.w3.org/2000/svg" viewBox="0 0 1600 900" role="img" aria-label="Nowoczesna pracownia obrobki szkla plaskiego">
  <defs>
    <linearGradient id="bg" x1="0" x2="1" y1="0" y2="1"><stop offset="0" stop-color="#dfeaf1"/><stop offset="0.52" stop-color="#f7fbfd"/><stop offset="1" stop-color="#b9cbd8"/></linearGradient>
    <linearGradient id="glass" x1="0" x2="1"><stop offset="0" stop-color="#dff5ff" stop-opacity="0.28"/><stop offset="0.48" stop-color="#ffffff" stop-opacity="0.72"/><stop offset="1" stop-color="#83bbd5" stop-opacity="0.36"/></linearGradient>
    <filter id="shadow" x="-20%" y="-20%" width="140%" height="140%"><feDropShadow dx="0" dy="18" stdDeviation="22" flood-color="#07111f" flood-opacity="0.18"/></filter>
  </defs>
  <rect width="1600" height="900" fill="url(#bg)"/>
  <path d="M0 680 C270 610 430 640 690 590 C950 540 1180 590 1600 510 L1600 900 L0 900 Z" fill="#eaf2f7"/>
  <g opacity="0.34" stroke="#8da4b5" stroke-width="2"><path d="M90 170 H1510"/><path d="M90 310 H1510"/><path d="M90 450 H1510"/><path d="M90 590 H1510"/><path d="M260 90 V750"/><path d="M520 90 V750"/><path d="M780 90 V750"/><path d="M1040 90 V750"/><path d="M1300 90 V750"/></g>
  <g filter="url(#shadow)"><polygon points="210,620 660,470 1250,560 760,745" fill="#1f2933" opacity="0.95"/><polygon points="278,612 672,500 1148,566 752,705" fill="#d7e5ed"/><polygon points="318,601 678,522 1060,571 748,675" fill="#ffffff" opacity="0.52"/></g>
  <g filter="url(#shadow)"><polygon points="980,140 1288,86 1306,648 985,716" fill="url(#glass)" stroke="#7fb5ce" stroke-width="6"/><polygon points="1080,155 1412,102 1430,602 1092,664" fill="url(#glass)" stroke="#9cc8da" stroke-width="5" opacity="0.92"/><polygon points="1188,172 1514,130 1530,570 1200,632" fill="url(#glass)" stroke="#b6d5e2" stroke-width="4" opacity="0.82"/></g>
  <g stroke="#1478a8" stroke-width="10" stroke-linecap="round" opacity="0.72"><path d="M344 584 L1028 584"/><path d="M430 646 L890 646"/></g>
  <g fill="#07111f" opacity="0.82"><rect x="100" y="718" width="1180" height="24" rx="4"/><rect x="230" y="742" width="38" height="72"/><rect x="930" y="742" width="38" height="72"/></g>
</svg>
